<svg xmlns="http://www.w3.org/2000/svg" viewBox="0 0 4622.46 1089.49">
  <defs>
    <style>
      .cls-1 {
        fill: #fff;
      }
    </style>
  </defs>
  <g id="objects">
    <g>
      <path class="cls-1" d="M1776.75-787.09q12.07-16.14,31.91-25.4t44.42-9.26q22.44,0,39.94,7.45t27.57,20.63A49.06,49.06,0,0,1,1930.65-763a60.92,60.92,0,0,1-2.75,18.6,55.52,55.52,0,0,1-9.33,17.07,129.36,129.36,0,0,1-18,18.24q-11.43,9.76-28.8,22.21l-41.82,30.1-.14,1.16h81.9l-9.84,46.3H1738.77l9.26-42.11,84.07-61.5q11.3-8.39,18.81-14.47a108.4,108.4,0,0,0,11.94-10.92,32.53,32.53,0,0,0,6.23-9.27,24.45,24.45,0,0,0,1.8-9.33,17.23,17.23,0,0,0-2.82-9.84,18.52,18.52,0,0,0-7.81-6.51,27.16,27.16,0,0,0-11.51-2.32,32.55,32.55,0,0,0-13.89,2.9,27,27,0,0,0-10.42,8.54,33.53,33.53,0,0,0-5.79,13.89h-55.27A67.11,67.11,0,0,1,1776.75-787.09Z" transform="translate(-1510.47 1333.54)"/>
      <path class="cls-1" d="M2033.68-640.28H1930.21l10.42-53.11q6.66-9.25,13.61-18.38t14.32-18.52q7.38-9.4,15.49-19.39t17.14-20.77q9-10.78,19.18-22.65t21.56-25h87.55l-27.93,131h24.89l-10,46.89h-24.89l-6.51,31h-57.88Zm-42-44.57H2045L2064.36-776h-1.16q-5.64,6.38-11.79,13.6t-12.52,15q-6.37,7.74-12.66,15.63T2013.93-716q-6,7.89-11.58,15.49T1991.86-686Z" transform="translate(-1510.47 1333.54)"/>
      <path class="cls-1" d="M2176.8-818.13h57L2218-744.91h1.16a63.64,63.64,0,0,1,22.14-20.19,61.41,61.41,0,0,1,29.81-7.16q14.61,0,25.54,5.57a41.69,41.69,0,0,1,17,15.49q6.07,9.91,6.08,23.22a91.43,91.43,0,0,1-.51,9.41,89.28,89.28,0,0,1-1.66,10.13l-20.84,99.12h-56.87l19-90.29a51.61,51.61,0,0,0,.79-5.21c.15-1.55.22-3.09.22-4.63a17.47,17.47,0,0,0-6.15-13.68q-6.15-5.43-15.56-5.43a26.45,26.45,0,0,0-12.8,3.26,30.57,30.57,0,0,0-10.2,9,33.92,33.92,0,0,0-5.79,13.24l-19.83,93.77h-57.16Z" transform="translate(-1510.47 1333.54)"/>
    </g>
    <rect class="cls-1" x="521.94" y="231.59" width="16.06" height="64.05" rx="8.03"/>
    <rect class="cls-1" x="1659.97" y="-729.51" width="16.06" height="64.05" rx="8.03" transform="translate(855.01 2304.06) rotate(-90)"/>
    <rect class="cls-1" x="2032.42" y="-357.07" width="16.06" height="64.05" rx="8.03" transform="translate(2570.42 683.46) rotate(180)"/>
    <rect class="cls-1" x="2404.86" y="-729.51" width="16.06" height="64.05" rx="8.03" transform="translate(204.93 -1776.83) rotate(90)"/>
    <path class="cls-1" d="M1660.64-733.31a5,5,0,0,1-.66,0,6,6,0,0,1-5.35-6.65,385,385,0,0,1,36.26-126.34A387.91,387.91,0,0,1,1765-970.92a388.47,388.47,0,0,1,104-74.87A385.21,385.21,0,0,1,1995-1083a6,6,0,0,1,6.7,5.3,6,6,0,0,1-5.3,6.7,372.87,372.87,0,0,0-122,36,376.05,376.05,0,0,0-100.77,72.54,376.18,376.18,0,0,0-71.82,101.33,373.14,373.14,0,0,0-35.12,122.38A6,6,0,0,1,1660.64-733.31Z" transform="translate(-1510.47 1333.54)"/>
    <path class="cls-1" d="M1998.59-311.64q-.33,0-.66,0a385.07,385.07,0,0,1-126.34-36.26A388.1,388.1,0,0,1,1767-422a388.22,388.22,0,0,1-74.86-104A385,385,0,0,1,1655-652a6,6,0,0,1,5.3-6.7,6,6,0,0,1,6.7,5.3,373,373,0,0,0,36,122,376.32,376.32,0,0,0,72.54,100.78,376.08,376.08,0,0,0,101.33,71.81,373,373,0,0,0,122.39,35.13,6,6,0,0,1,5.35,6.65A6,6,0,0,1,1998.59-311.64Z" transform="translate(-1510.47 1333.54)"/>
    <path class="cls-1" d="M2085.23-312a6,6,0,0,1-6-5.34,6,6,0,0,1,5.3-6.7,372.87,372.87,0,0,0,122-36,376.05,376.05,0,0,0,100.77-72.54,376,376,0,0,0,71.82-101.33,373.07,373.07,0,0,0,35.12-122.38,6,6,0,0,1,6.66-5.35,6,6,0,0,1,5.35,6.66A385,385,0,0,1,2390-528.64a387.91,387.91,0,0,1-74.11,104.58,388.25,388.25,0,0,1-104,74.87A385,385,0,0,1,2085.94-312,5.74,5.74,0,0,1,2085.23-312Z" transform="translate(-1510.47 1333.54)"/>
    <path class="cls-1" d="M2419.92-736.24a6,6,0,0,1-6-5.34,373,373,0,0,0-36-122,376.32,376.32,0,0,0-72.54-100.78A376.08,376.08,0,0,0,2204-1036.17a373,373,0,0,0-122.39-35.12,6,6,0,0,1-5.35-6.66,6,6,0,0,1,6.66-5.35A385.06,385.06,0,0,1,2209.3-1047a388.32,388.32,0,0,1,104.58,74.12,388.27,388.27,0,0,1,74.86,104A384.82,384.82,0,0,1,2425.92-743a6,6,0,0,1-5.3,6.7A5.48,5.48,0,0,1,2419.92-736.24Z" transform="translate(-1510.47 1333.54)"/>
    <path class="cls-1" d="M2359-1108.41l-200.65,94.82c-15.86,7.49-33.16-7.18-28.37-24.05l18.86-66.26c-222.16-57.51-450.8,73.37-512.55,296.05C1574-583.59,1704.12-352.25,1928-288.79a420.28,420.28,0,0,0,264.71-11.35,13.65,13.65,0,0,1,17.37,7.45,13.59,13.59,0,0,1,.57,9.08,13.66,13.66,0,0,1-8.57,9.16A514.5,514.5,0,0,1,1889.66-263C1613-339.66,1452-625.74,1530.22-902c77.85-275.08,364.12-434.73,639-356.52l21.8,6.2,18.89-66.38c4.8-16.88,27.23-20.24,36.78-5.52L2367.36-1138A20.42,20.42,0,0,1,2359-1108.41Z" transform="translate(-1510.47 1333.54)"/>
    <path class="cls-1" d="M2869.46-547.53,2802-645h-74.5v97.5h-81v-350H2798c93.5,0,152,48.5,152,127,0,52.5-26.5,91-72,110.5l78.5,112.5Zm-76-284h-66v122h66c49.5,0,74.5-23,74.5-61C2868-809,2843-831.53,2793.46-831.53Z" transform="translate(-1510.47 1333.54)"/>
    <path class="cls-1" d="M2992-722.53c0-104,81-181,191.5-181,110,0,191.5,76.5,191.5,181s-81.5,181-191.5,181C3073-541.53,2992-618.53,2992-722.53Zm301,0c0-66.5-47-112-109.5-112S3074-789,3074-722.53s47,112,109.5,112S3293-656,3293-722.53Z" transform="translate(-1510.47 1333.54)"/>
    <path class="cls-1" d="M3661.46-622.53H3499l-31,75h-83l156-350h80l156.5,350h-85ZM3636-684l-55.5-134L3525-684Z" transform="translate(-1510.47 1333.54)"/>
    <path class="cls-1" d="M3814-897.53h159c114.5,0,193,69,193,175s-78.5,175-193,175H3814ZM3969-614c69.5,0,115-41.5,115-108.5S4038.45-831,3969-831h-74v217Z" transform="translate(-1510.47 1333.54)"/>
    <path class="cls-1" d="M4598.94-622.53h-162.5l-31,75h-83l156-350h80l156.5,350h-85Zm-25.5-61.5-55.5-134-55.5,134Z" transform="translate(-1510.47 1333.54)"/>
    <path class="cls-1" d="M5072.44-897.53v350h-66.5L4831.44-760v212.5h-80v-350h67l174,212.5v-212.5Z" transform="translate(-1510.47 1333.54)"/>
    <path class="cls-1" d="M5391.94-728h74v142c-38.5,29-91.5,44.5-141.5,44.5-110,0-191-75.5-191-181s81-181,192.5-181c61.5,0,112.5,21,146.5,60.5l-52,48c-25.5-27-55-39.5-90.5-39.5-68,0-114.5,45.5-114.5,112,0,65.5,46.5,112,113.5,112,22,0,42.5-4,63-15Z" transform="translate(-1510.47 1333.54)"/>
    <path class="cls-1" d="M5811.93-612.53v65h-271v-350h264.5v65h-184v76h162.5v63h-162.5v81Z" transform="translate(-1510.47 1333.54)"/>
    <path class="cls-1" d="M5876.43-897.53h81v284h175.5v66h-256.5Z" transform="translate(-1510.47 1333.54)"/>
  </g>
</svg>
